# xmcd
#
# Track frame offsets: 
#        150
#        59415
#        91391
#
# Disc length: 2243 seconds
#
# Revision: 0
# Processed by: cddbd v1.5.2PL0 Copyright (c) Steve Scherf et al.
# Submitted via: ExactAudioCopy v0.99pb5
#
DISCID=2008c103
DTITLE=Cream  - Synergy - Disc 4  MA-004
DYEAR=1900
DGENRE=
TTITLE0=Steppin' Out
TTITLE1=Traintime
TTITLE2=Toad
EXTD=
EXTT0=
EXTT1=
EXTT2=
PLAYORDER=
